<svg width="32" height="32" viewBox="0 0 32 32" fill="none" xmlns="http://www.w3.org/2000/svg">
<circle cx="15.6842" cy="15.6842" r="15.6842" fill="#2E2E2E"/>
<path d="M22.7422 10.8369C22.7422 9.6626 21.7061 8.62646 20.5318 8.62646H11.6211C10.4468 8.62646 9.41064 9.6626 9.41064 10.8369V19.7476C9.41064 20.9219 10.4468 21.958 11.6211 21.958H16.111V16.9155H14.4532V14.7051H16.111V13.8071C16.111 12.2875 17.2162 10.975 18.5977 10.975H20.3937V13.1854H18.5977C18.3905 13.1854 18.1832 13.3927 18.1832 13.8071V14.7051H20.3937V16.9155H18.1832V21.958H20.5318C21.7061 21.958 22.7422 20.9219 22.7422 19.7476V10.8369Z" fill="white"/>
</svg>
