<svg width="32" height="32" viewBox="0 0 32 32" fill="none" xmlns="http://www.w3.org/2000/svg">
<circle cx="16.1054" cy="15.6842" r="15.6842" fill="#2E2E2E"/>
<path d="M21.2662 9.41064H11.729C10.6522 9.41064 9.83179 10.231 9.83179 11.3078V20.845C9.83179 21.9218 10.6522 22.7422 11.729 22.7422H21.2662C22.343 22.7422 23.1634 21.9218 23.1634 20.845V11.3078C23.1634 10.231 22.343 9.41064 21.2662 9.41064ZM16.4976 20.0759C18.7024 20.0759 20.4971 18.3325 20.4971 16.2303C20.4971 15.8713 20.4458 15.4611 20.3432 15.1535H21.4713V20.5887C21.4713 20.845 21.2662 21.1014 20.9585 21.1014H12.0366C11.7803 21.1014 11.5239 20.8963 11.5239 20.5887V15.1022H12.7032C12.6007 15.4611 12.5494 15.8201 12.5494 16.179C12.4981 18.3325 14.2927 20.0759 16.4976 20.0759ZM16.4976 18.5376C15.0619 18.5376 13.9338 17.4096 13.9338 16.0252C13.9338 14.6407 15.0619 13.5127 16.4976 13.5127C17.9333 13.5127 19.0613 14.6407 19.0613 16.0252C19.0613 17.4609 17.9333 18.5376 16.4976 18.5376ZM21.42 13.0512C21.42 13.3588 21.1636 13.6152 20.856 13.6152H19.4203C19.1126 13.6152 18.8562 13.3588 18.8562 13.0512V11.6668C18.8562 11.3591 19.1126 11.1027 19.4203 11.1027H20.856C21.1636 11.1027 21.42 11.3591 21.42 11.6668V13.0512Z" fill="white"/>
</svg>
