<svg width="19" height="20" viewBox="0 0 19 20" fill="none" xmlns="http://www.w3.org/2000/svg">
<path d="M9.96812 0C10.3023 0.0664498 10.6486 0.112453 10.9767 0.204461C12.8663 0.751393 14.0632 2.0855 14.1908 3.76719C14.1908 3.79786 14.203 3.82853 14.2091 3.88987C14.2941 3.88987 14.3792 3.88987 14.4582 3.88987C15.2602 3.88987 16.0683 3.88987 16.8703 3.88987C17.3685 3.88987 17.6116 4.07388 17.6602 4.48792C17.8242 6.02137 17.9822 7.55994 18.1402 9.09339C18.3346 10.9182 18.529 12.7481 18.7234 14.5729C18.8206 15.4675 18.9482 16.362 18.9968 17.2565C19.0455 18.1766 18.529 18.882 17.6602 19.4084C16.9736 19.8225 16.1898 19.9912 15.3453 19.9912C12.3073 19.986 9.26332 19.9912 6.22539 19.9912C5.27148 19.9912 4.32364 20.0167 3.36973 19.9809C2.16671 19.94 1.17634 19.5209 0.47762 18.6724C-0.00237289 18.0897 -0.0509798 17.4354 0.0340823 16.7505C0.210282 15.3346 0.343951 13.9136 0.489772 12.4926C0.635593 11.0971 0.787489 9.70678 0.93331 8.31133C1.06698 7.07434 1.19457 5.83736 1.32217 4.60037C1.32824 4.54414 1.32824 4.4828 1.34039 4.42658C1.40115 4.06877 1.63811 3.88987 2.07557 3.88476C2.88974 3.87964 3.69783 3.88476 4.51199 3.88476C4.60313 3.88476 4.69427 3.88476 4.79148 3.88476C4.82794 3.27648 4.96768 2.71422 5.2897 2.19284C6.05526 0.981412 7.24005 0.265799 8.84408 0.0408922C8.91092 0.0306691 8.97775 0.0153346 9.04459 0C9.34838 0 9.65825 0 9.96812 0ZM4.80971 5.00929C4.06238 5.00929 3.34543 5.00929 2.61632 5.00929C2.61025 5.05018 2.5981 5.08085 2.5981 5.11663C2.41582 6.86477 2.22747 8.61802 2.04519 10.3662C1.80823 12.6459 1.57128 14.9308 1.32824 17.2105C1.28571 17.6296 1.44976 17.9772 1.77785 18.2788C2.28823 18.7388 2.94442 18.8973 3.66745 18.8973C7.556 18.9024 11.4506 18.9024 15.3392 18.8973C15.7766 18.8973 16.1959 18.836 16.5969 18.6724C17.2348 18.4117 17.7938 17.8545 17.6845 17.1389C17.6176 16.7096 17.5872 16.27 17.5447 15.8355C17.3867 14.302 17.2227 12.7635 17.0647 11.23C16.8824 9.50232 16.7002 7.76951 16.5179 6.04182C16.4814 5.69935 16.4389 5.35687 16.4025 5.01951C15.6612 5.01951 14.9382 5.01951 14.203 5.01951C14.203 5.09107 14.203 5.15241 14.203 5.20864C14.203 5.70446 14.2091 6.20027 14.1969 6.69098C14.1908 7.00278 13.8992 7.2328 13.5407 7.22769C13.1944 7.22258 12.9149 6.99767 12.8967 6.69609C12.8906 6.59386 12.8967 6.48652 12.8967 6.38429C12.8967 5.92936 12.8967 5.47444 12.8967 5.01951C10.6243 5.01951 8.38232 5.01951 6.1221 5.01951C6.1221 5.07063 6.1221 5.11152 6.1221 5.1473C6.1221 5.65334 6.12817 6.16449 6.1221 6.67053C6.11602 6.99767 5.83046 7.2328 5.4659 7.22769C5.10743 7.22769 4.83401 6.99256 4.82186 6.68076C4.81579 6.58364 4.82186 6.48652 4.82186 6.3894C4.80971 5.92936 4.80971 5.47444 4.80971 5.00929ZM12.8906 3.87964C12.8055 2.81134 12.2526 1.99349 11.159 1.47723C9.97419 0.920074 8.77725 0.960966 7.64106 1.58457C6.675 2.11617 6.18285 2.89823 6.1221 3.87964C8.38839 3.87964 10.6304 3.87964 12.8906 3.87964Z" fill="white"/>
</svg>
