<svg width="32" height="32" viewBox="0 0 32 32" fill="none" xmlns="http://www.w3.org/2000/svg">
<circle cx="15.8947" cy="15.6842" r="15.6842" fill="#2E2E2E"/>
<path d="M23.5848 19.6956C23.5848 19.6305 23.5197 19.6305 23.5197 19.5654C23.2593 19.0445 22.6733 18.3934 21.892 17.6772C21.5014 17.3517 21.306 17.0913 21.1758 16.9611C20.9805 16.7006 20.9805 16.5053 21.0456 16.2449C21.1107 16.0496 21.3711 15.724 21.8269 15.1381C22.0873 14.8125 22.2175 14.6172 22.4129 14.4219C23.3895 13.1197 23.8452 12.2733 23.715 11.8827L23.6499 11.8176C23.5848 11.7525 23.5197 11.6874 23.3895 11.6874C23.2593 11.6223 23.0639 11.6223 22.8686 11.6874H20.3945C20.3294 11.6874 20.3294 11.6874 20.1992 11.6874C20.1341 11.6874 20.069 11.6874 20.069 11.6874H20.0039H19.9388L19.8737 11.7525C19.8086 11.8176 19.8086 11.8176 19.8086 11.8827C19.5481 12.5989 19.2226 13.1848 18.8971 13.8359C18.7017 14.1614 18.5064 14.487 18.3111 14.7474C18.1158 15.0078 17.9856 15.2032 17.8553 15.3334C17.7251 15.4636 17.5949 15.5287 17.5298 15.6589C17.4647 15.724 17.3345 15.7891 17.3345 15.724C17.2694 15.724 17.2043 15.724 17.2043 15.6589C17.1392 15.5938 17.0741 15.5287 17.009 15.4636C16.9438 15.3985 16.9438 15.2683 16.8787 15.1381C16.8787 15.0078 16.8787 14.8776 16.8787 14.8125C16.8787 14.7474 16.8787 14.5521 16.8787 14.4219C16.8787 14.2266 16.8787 14.0963 16.8787 14.0312C16.8787 13.8359 16.8787 13.5755 16.8787 13.3151C16.8787 13.0546 16.8787 12.8593 16.8787 12.7291C16.8787 12.5989 16.8787 12.4035 16.8787 12.2733C16.8787 12.078 16.8787 11.9478 16.8787 11.8827C16.8787 11.8176 16.8136 11.6874 16.8136 11.6223C16.7485 11.5571 16.6834 11.492 16.6183 11.4269C16.5532 11.3618 16.423 11.3618 16.3579 11.2967C16.0323 11.2316 15.6417 11.1665 15.186 11.1665C14.1442 11.1665 13.428 11.2316 13.1676 11.3618C13.0374 11.4269 12.9072 11.492 12.8421 11.6223C12.7119 11.7525 12.7119 11.8176 12.777 11.8176C13.1025 11.8827 13.3629 12.0129 13.4932 12.2082L13.5583 12.3384C13.6234 12.4035 13.6234 12.5338 13.6885 12.7291C13.7536 12.9244 13.7536 13.1197 13.7536 13.3802C13.7536 13.7708 13.7536 14.1614 13.7536 14.4219C13.7536 14.7474 13.6885 14.9427 13.6885 15.1381C13.6885 15.3334 13.6234 15.4636 13.5583 15.5287C13.4932 15.6589 13.4931 15.724 13.428 15.724C13.428 15.724 13.428 15.7891 13.3629 15.7891C13.2978 15.7891 13.2327 15.8542 13.1025 15.8542C13.0374 15.8542 12.9072 15.7891 12.8421 15.724C12.7119 15.6589 12.5816 15.5287 12.5165 15.3985C12.3863 15.2683 12.2561 15.0729 12.1259 14.8125C11.9957 14.5521 11.8003 14.2917 11.6701 13.901L11.5399 13.6406C11.4748 13.5104 11.3446 13.2499 11.2144 12.9244C11.0842 12.5989 10.954 12.3384 10.8237 12.0129C10.7586 11.8827 10.6935 11.8176 10.6284 11.7525H10.5633C10.5633 11.7525 10.4982 11.6874 10.4331 11.6874C10.368 11.6874 10.3029 11.6223 10.2378 11.6223H7.89391C7.63348 11.6223 7.50327 11.6874 7.43816 11.7525L7.37305 11.8176C7.37305 11.8176 7.37305 11.8827 7.37305 11.9478C7.37305 12.0129 7.37305 12.078 7.43816 12.2082C7.7637 12.9895 8.15434 13.7708 8.54498 14.5521C8.93563 15.2683 9.32628 15.9193 9.58671 16.3751C9.91224 16.8309 10.1727 17.2866 10.4982 17.6772C10.8237 18.0679 11.0191 18.3283 11.0842 18.4585C11.2144 18.5888 11.2795 18.6539 11.3446 18.719L11.5399 18.9143C11.6701 19.0445 11.8655 19.2398 12.1259 19.4351C12.3863 19.6305 12.7119 19.8258 13.0374 20.0211C13.3629 20.2164 13.7536 20.3467 14.1442 20.4769C14.6 20.6071 14.9906 20.6722 15.3813 20.6071H16.3579C16.5532 20.6071 16.6834 20.542 16.8136 20.4118L16.8787 20.3466C16.8787 20.2815 16.9438 20.2815 16.9438 20.2164C16.9438 20.1513 16.9438 20.0862 16.9438 19.956C16.9438 19.6956 16.9438 19.5003 17.009 19.3049C17.0741 19.1096 17.0741 18.9794 17.1392 18.8492C17.2043 18.719 17.2694 18.6539 17.3345 18.5887C17.3996 18.5236 17.4647 18.4585 17.4647 18.4585H17.5298C17.66 18.3934 17.8553 18.4585 17.9856 18.5887C18.1809 18.719 18.3762 18.9143 18.5064 19.1096C18.6366 19.3049 18.832 19.5003 19.0924 19.7607C19.3528 20.0211 19.5481 20.2164 19.6784 20.2815L19.8737 20.4118C20.0039 20.4769 20.1341 20.542 20.3294 20.6071C20.5248 20.6722 20.655 20.6722 20.7852 20.6722L22.9988 20.6071C23.1942 20.6071 23.3895 20.542 23.5197 20.4769C23.6499 20.4118 23.715 20.3467 23.715 20.2164C23.715 20.1513 23.715 20.0211 23.715 19.956C23.5848 19.8258 23.5848 19.7607 23.5848 19.6956Z" fill="white"/>
</svg>
