<svg width="32" height="32" viewBox="0 0 32 32" fill="none" xmlns="http://www.w3.org/2000/svg">
<circle cx="16.3158" cy="15.6842" r="15.6842" fill="#2E2E2E"/>
<path d="M23.1486 14.8319C23.1486 14.5278 23.098 14.1729 23.098 13.7673C23.0473 13.3617 22.9965 12.9562 22.9459 12.6013C22.8445 12.1957 22.6924 11.8915 22.3882 11.6381C22.1347 11.3846 21.7798 11.2325 21.425 11.1818C20.2589 11.0297 18.5353 10.979 16.2032 10.979C13.8712 10.979 12.0968 11.0297 10.9815 11.1818C10.6266 11.2325 10.2717 11.3846 10.0183 11.6381C9.76478 11.8915 9.56199 12.1957 9.4606 12.6013C9.3592 12.9562 9.30851 13.311 9.30851 13.7673C9.25782 14.1729 9.25781 14.5278 9.25781 14.8319C9.25781 15.1361 9.25781 15.491 9.25781 15.9979C9.25781 16.5049 9.25781 16.9105 9.25781 17.164C9.25781 17.4681 9.30851 17.823 9.30851 18.2286C9.35921 18.6342 9.4099 19.0397 9.4606 19.3946C9.56199 19.8002 9.71408 20.1044 10.0183 20.3578C10.2717 20.6113 10.6266 20.7634 10.9815 20.8141C12.1475 20.9662 13.8712 21.0169 16.2032 21.0169C18.5353 21.0169 20.3096 20.9662 21.425 20.8141C21.7798 20.7634 22.1347 20.6113 22.3882 20.3578C22.6417 20.1044 22.8445 19.8002 22.9459 19.3946C23.0472 19.0397 23.098 18.6849 23.098 18.2286C23.1486 17.823 23.1486 17.4681 23.1486 17.164C23.1486 16.8598 23.1486 16.5049 23.1486 15.9979C23.1486 15.491 23.1486 15.0854 23.1486 14.8319ZM18.8901 16.4035L14.8851 18.8876C14.8344 18.9383 14.733 18.989 14.6316 18.989C14.5302 18.989 14.4795 18.989 14.3782 18.9383C14.2261 18.837 14.1247 18.6849 14.1247 18.4821V13.4631C14.1247 13.2603 14.2261 13.1083 14.3782 13.0069C14.5302 12.9055 14.733 12.9055 14.8851 13.0069L18.8901 15.491C19.0422 15.5924 19.1436 15.7445 19.1436 15.8966C19.1436 16.0486 19.0422 16.3021 18.8901 16.4035Z" fill="white"/>
</svg>
